<svg id="Capa_1" enable-background="new 0 0 512 512" height="512" viewBox="0 0 512 512" width="512" xmlns="http://www.w3.org/2000/svg"><g><g><path clip-rule="evenodd" d="m504.5 448.408v-58.792c0-2.636-2.183-4.791-4.819-4.791h-47.537c2.636 0 4.819 2.154 4.819 4.791v58.792c0 2.665-2.183 4.819-4.819 4.819h21.345 26.192c2.636 0 4.819-2.155 4.819-4.819z" fill="#78c2a4" fill-rule="evenodd"/></g><g><path clip-rule="evenodd" d="m265.935 346.499v-106.954l-37.956-3.699-31.89 33.606s-47.881 20.228-45.443 21.362c1.757.794 0 55.686 0 55.686h115.289z" fill="#edf4ff" fill-rule="evenodd"/></g><g><path clip-rule="evenodd" d="m284.729 220.127c7.285-12.643 6.378-17.632 7.285-34.839v-18.398c0-17.632-14.428-32.061-32.06-32.061h-83.764c-13.408 0-21.543 6.548-28.148 17.264l-49.295 80.053c1.757.312 52.76 45.862 57.919 46.854 13.039 2.495 87.102-28.797 87.102-28.797l5.159-2.069c12.699-5.131 23.358-11.396 31.181-21.204 1.673-2.098 3.204-4.365 4.621-6.803z" fill="#edf4ff" fill-rule="evenodd"/></g><g><path clip-rule="evenodd" d="m230.729 304.63c-2.438-1.134-4.876-5.074-10.913-12.473-6.095-7.427-16.158-16.867-23.726-22.706-13.423-11.183-13.423-11.183-22.649-19.191-10.488-7.569-23.329-11.764-36.369-14.259-5.159-.992-10.318-1.701-15.421-2.268l-22.904 16.47 11.906 24.067c8.277 1.672 14.769 4.139 18.822 6.01 37.389 17.292 53.036 44.25 53.688 53.775.567 8.022-8.986 10.092-40.706 10.092h-54.736l-14.221 21.543 14.221 19.134h136.092l42.123-38.326z" fill="#7e707d" fill-rule="evenodd"/></g><g><path clip-rule="evenodd" d="m404.607 384.825h-107.49-73.304-136.092-44.079-31.351c-2.636 0-4.791 2.154-4.791 4.791v58.792c0 2.665 2.154 4.819 4.791 4.819h26.192 435.006 26.192c2.636 0 4.819-2.154 4.819-4.819v-58.792c0-2.636-2.183-4.791-4.819-4.791z" fill="#b3e59f" fill-rule="evenodd"/></g><g><path clip-rule="evenodd" d="m473.489 453.227h-435.006v21.431c0 11.792 9.638 21.431 21.43 21.431h392.146c11.792 0 21.43-9.638 21.43-21.431z" fill="#f9f7f8" fill-rule="evenodd"/></g><g><path clip-rule="evenodd" d="m243.768 250.203-15.789-31.21-44.362 19.248c-5.357 2.126-9.014 6.747-10.176 12.019-.68 3.175-.482 6.605.822 9.837 3.43 8.589 13.266 12.785 21.827 9.355z" fill="#ffeee6" fill-rule="evenodd"/></g><g><path clip-rule="evenodd" d="m248.928 248.134c12.699-5.131 23.358-11.396 31.181-21.204 1.672-2.098 3.203-4.365 4.62-6.803 7.285-12.643 6.378-17.632 7.285-34.839v-18.398c0-16.158-12.104-29.595-27.695-31.749 5.698 5.783 9.213 13.72 9.213 22.423v18.397c-.879 17.207.028 22.224-7.257 34.867-1.417 2.438-2.976 4.706-4.649 6.803-6.491 8.136-14.967 13.862-24.973 18.511l7.115 14.06z" fill="#dbeaff" fill-rule="evenodd"/></g><g><path clip-rule="evenodd" d="m243.768 250.203-7.115-14.06c-2.013.935-4.054 1.814-6.18 2.665l-5.159 2.098-.085-.142-36.227 14.627c-5.471 2.183-11.452 1.276-15.959-1.899-.028 2.211.34 4.451 1.219 6.605 3.43 8.589 13.266 12.785 21.827 9.355z" fill="#ffdfcf" fill-rule="evenodd"/></g><g><path clip-rule="evenodd" d="m82.108 344.146c-8.164 0-13.578-.028-16.98-7.2-4.535-9.61-15.846-26.703-26.929-27.554-8.504-.652-7.342 2.438-6.293 8.362l11.735 67.07h44.079v-40.678z" fill="#ffeee6" fill-rule="evenodd"/></g><g><path clip-rule="evenodd" d="m110.653 274.27 10.998-40.537c-5.159-.567-10.233-.964-15.052-1.332-3.742-.255-6.095.057-7.852-.255-2.098-.34-3.373-1.531-5.216-5.414-4.564-9.581-16.668-28.376-27.78-29.226-8.504-.652-7.313 2.466-6.293 8.362l10.346 59.019c1.814 10.347 1.928 8.958 13.408 7.909 10.376-.964 19.702-.085 27.441 1.474z" fill="#ffeee6" fill-rule="evenodd"/></g><g><path clip-rule="evenodd" d="m373.17 313.134c-22.394-18.823-59.783-26.675-93.062-23.103-15.931 1.701-30.898 6.038-42.832 13.011-3.061 1.786-4.791 2.381-6.548 1.587v41.869l66.388 38.326h107.49c-.311-29.311 4.621-36.879-31.436-71.69z" fill="#f37c7c" fill-rule="evenodd"/></g><g><path clip-rule="evenodd" d="m218.086 172.135c13.635 0 24.803-12.274 24.803-27.298v-10.007h-49.635v10.007c.001 15.023 11.169 27.298 24.832 27.298z" fill="#ffdfcf" fill-rule="evenodd"/></g><g><path clip-rule="evenodd" d="m234.357 134.83c19.021-8.844 34.016-29.878 34.016-46.83v-15.393c-17.707-28.347-82.707-39.274-100.602 0v15.393c0 16.952 14.995 37.985 34.044 46.858 4.965 2.246 10.288 3.955 15.781 4.049 5.833.1 11.506-1.689 16.761-4.077z" fill="#ffeee6" fill-rule="evenodd"/></g><g><path clip-rule="evenodd" d="m268.373 72.607c0-37.362-25.143-56.298-50.287-56.695-25.143.397-50.315 19.333-50.315 56.695 20.381-1.417 22.904-16.243 36.936-12.615 4.592 1.191 60.662 12.417 63.666 12.615z" fill="#e29d7b" fill-rule="evenodd"/></g><g><path clip-rule="evenodd" d="m218.086 138.912c-4.025 0-8.05-.85-12.614-2.523-1.219-.454-2.466-.992-3.657-1.559h-8.561v7.512c0 6.605 18.539 11.878 25.54 11.849 12.132 0 24.095-5.414 24.095-11.849v-7.512h-8.532c0 .028 0 .028 0 0-.312.17-.624.283-.907.425-2.268 1.021-4.677 1.899-7.058 2.495-2.806.736-5.443 1.162-8.306 1.162z" fill="#ffcebf" fill-rule="evenodd"/></g><g><path clip-rule="evenodd" d="m268.373 72.607c0-37.362-25.143-56.298-50.287-56.695-4.535.057-9.043.737-13.436 2.013 18.822 5.471 34.951 21.998 36.709 49.579 13.436 2.665 25.654 5.018 27.014 5.103z" fill="#ce8b6b" fill-rule="evenodd"/></g><g><path clip-rule="evenodd" d="m234.357 134.83c19.021-8.844 34.016-29.878 34.016-46.83v-15.393c-1.361-.085-13.578-2.438-27.014-5.103v15.393c0 18.029-16.951 40.678-37.701 48.389-1.928.709-3.742 1.276-5.528 1.673 1.219.68 2.438 1.304 3.685 1.899 1.191.539 2.438 1.077 3.657 1.531 4.564 1.672 8.589 2.523 12.614 2.523 4.337 0 8.532-1.02 12.586-2.523 1.276-.482 2.467-.992 3.685-1.559z" fill="#ffdfcf" fill-rule="evenodd"/></g><g><path clip-rule="evenodd" d="m110.653 274.27 5.471-20.183c-9.014-2.835-21.798-5.301-36.879-3.912-11.48 1.049-11.594 2.438-13.408-7.909l3.969 22.621c1.814 10.347 1.928 8.958 13.408 7.909 10.374-.964 19.7-.085 27.439 1.474z" fill="#ffdfcf" fill-rule="evenodd"/></g><g><path clip-rule="evenodd" d="m297.117 384.825v-38.326h-66.388-5.272c-10.545 0-19.191 8.646-19.191 19.191 0 10.007 7.739 18.284 17.547 19.134h73.304z" fill="#ffeee6" fill-rule="evenodd"/></g><g><path clip-rule="evenodd" d="m449.5 337.008c1.973-11.444 0-27.729-8.865-48.508-8.306-4.11-17.802-5.953-27.638-4.904-17.915 1.899-32.457 14.4-39.827 29.538-1.049 2.183-1.956 4.394-2.721 6.633-2.098 6.378-2.948 13.011-2.268 19.361 2.268 21.289 15.591 39.374 36.425 45.696l10.847-3.46c15.64-4.988 27.555-17.76 31.447-33.709z" fill="#ffeee6" fill-rule="evenodd"/></g><g><path clip-rule="evenodd" d="m477.996 348.086c3.685-15.506-4.847-30.53.709-55.306 4.167-18.596-9.694-19.163-25.54-13.408-5.102 1.871-9.354 4.989-12.529 9.128-8.164 10.545-9.439 27.724-.397 47.368 12.019 26.023-35.632 48.956-35.632 48.956 41.074.001 66.076-5.981 73.389-36.738z" fill="#7e707d" fill-rule="evenodd"/></g><g><path clip-rule="evenodd" d="m440.238 335.869c-9.043-19.645-7.767-36.823.397-47.368-6.86-3.373-14.513-5.244-22.535-5.188-5.414 11.991-5.329 29.169 2.523 48.417 8.419 20.637-12.501 39.545-25.739 49.013 3.033 1.644 6.265 3.033 9.723 4.082 0 0 47.65-22.933 35.631-48.956z" fill="#ffdfcf" fill-rule="evenodd"/></g><g><path clip-rule="evenodd" d="m477.996 348.086c3.685-15.506-4.847-30.53.709-55.306 2.92-12.955-2.948-17.15-12.104-16.555-19.162 26.42-2.069 51.876-8.277 74.61-4.62 19.503-16.384 29.056-34.838 33.421 29.905-2.068 48.387-10.458 54.51-36.17z" fill="#6a5d6a" fill-rule="evenodd"/></g><g><path clip-rule="evenodd" d="m196.033 317.5c-16.299-50.231-80.051-63.47-79.909-63.413l-5.471 20.183c8.277 1.672 14.769 4.139 18.822 6.01 37.389 17.292 53.036 44.25 53.688 53.775.283 4.195-2.183 6.747-9.099 8.249 0 0 8.391 2.976 15.562-4.252l-.057.057c6.35-5.585 8.59-14.061 6.464-20.609zm-12.132 24.237c.312-.142.624-.312.935-.454-.312.142-.624.312-.935.454zm.992-.482c.142-.085.283-.142.425-.227-.142.085-.284.142-.425.227zm.453-.227c.142-.085.283-.17.454-.255-.17.085-.312.17-.454.255zm.454-.283c.142-.057.283-.142.425-.227-.142.085-.284.17-.425.227zm.482-.256c.113-.085.255-.17.397-.255-.142.085-.284.17-.397.255zm.85-.538c.142-.085.283-.17.397-.283-.113.113-.255.198-.397.283zm.454-.312c.113-.085.255-.17.368-.255-.113.085-.255.17-.368.255zm.396-.283c.142-.085.255-.17.397-.283-.141.112-.255.197-.397.283zm.397-.284c.283-.198.539-.425.794-.624-.255.199-.51.426-.794.624zm1.163-.935c-.142.085-.255.198-.369.312m-2.041 1.502c-.142.085-.283.198-.425.283" fill="#6a5d6a" fill-rule="evenodd"/></g><g><path clip-rule="evenodd" d="m394.884 380.743c-15.222-8.334-24.803-23.84-26.702-41.614-.68-6.35.17-12.983 2.268-19.361.765-2.239 1.672-4.451 2.721-6.633-5.953-5.017-12.983-9.241-20.693-12.7-1.559 3.288-2.891 6.633-4.025 10.035-3.515 10.545-4.904 21.487-3.798 31.976 1.672 15.563 6.917 30.105 15.25 42.379h44.703c-3.46-1.049-6.691-2.438-9.724-4.082z" fill="#ee6161" fill-rule="evenodd"/></g><g><path clip-rule="evenodd" d="m473.489 474.657v-21.431h-21.345-54.624v21.431c0 11.792-9.666 21.431-21.43 21.431h75.969c11.792 0 21.43-9.638 21.43-21.431z" fill="#f0f0f0" fill-rule="evenodd"/></g><g><path clip-rule="evenodd" d="m506.428 449.294v-60.567c0-2.716-2.249-4.935-4.964-4.935h-48.972c2.716 0 4.964 2.219 4.964 4.935v60.567c0 2.745-2.249 4.965-4.964 4.965h21.989 26.983c2.715 0 4.964-2.22 4.964-4.965z" fill="#95d6a4" fill-rule="evenodd"/></g><path d="m499.681 377.324h-30.372c7.415-6.251 13.026-15.065 15.984-27.504 1.95-8.208 1.063-15.872.125-23.987-1.078-9.311-2.192-18.938.605-31.412v-.001c2.15-9.593.585-16.792-4.651-21.398-6.338-5.575-16.69-5.811-30.771-.698-4.462 1.623-8.456 4.073-11.852 7.195-8.418-3.175-17.487-4.344-26.547-3.381-16.423 1.752-31.621 11.605-41.302 25.933-9.861-6.634-21.936-11.916-35.434-15.442-4.012-1.049-8.105 1.354-9.152 5.361-1.047 4.008 1.353 8.105 5.361 9.152 12.589 3.288 23.637 8.222 32.319 14.385-.232.628-.457 1.26-.669 1.897-2.473 7.52-3.373 15.301-2.601 22.498 1.576 14.79 7.763 27.784 17.283 37.401h-73.39v-23.325h19.939c4.142 0 7.5-3.357 7.5-7.5s-3.358-7.5-7.5-7.5h-86.327v-28.028c.901-.397 1.841-.872 2.833-1.452 14.54-8.498 35.401-13.164 57.236-12.81.042.001.083.001.125.001 4.085 0 7.429-3.277 7.497-7.377.068-4.142-3.235-7.555-7.376-7.622-8.647-.138-17.069.424-25.108 1.615v-39.863c6.647-4.86 12.924-11.149 17.792-19.591 7.17-12.443 7.456-19.258 7.975-31.629.083-1.98.174-4.148.301-6.56.004-.067-.001-.133 0-.2.002-.065.01-.129.01-.195v-18.397c0-21.814-17.747-39.562-39.56-39.562h-2.622c11.11-11.358 18.541-26.087 18.541-39.329v-15.391c0-19.334-6.191-35.762-17.904-47.506-10.494-10.522-24.616-16.449-39.764-16.688-.079-.002-.158-.002-.237 0-15.149.239-29.275 6.166-39.776 16.687-11.724 11.746-17.92 28.174-17.92 47.508v15.391c0 13.237 7.432 27.966 18.553 39.329h-2.635c-19.445 0-29.021 11.887-34.535 20.831l-43.67 70.919c-4.939-8.869-17.183-27.944-31.661-29.053-4.03-.305-9.083-.182-12.452 3.55-3.545 3.929-2.655 8.847-2.006 12.438l10.552 60.169c.936 5.335 1.674 9.549 5.197 12.411 3.69 2.999 7.935 2.546 12.853 2.018 1.009-.107 2.145-.229 3.433-.347 20.815-1.919 36.605 4.134 42.425 6.822 6.301 2.914 11.88 6.084 16.82 9.358v40.198c-.233 0-.453.002-.688.002h-60.35c-8.821 0-9.059-.502-10.197-2.901-1.468-3.11-14.87-30.43-33.138-31.829-4.041-.313-9.11-.187-12.478 3.558-3.547 3.942-2.673 8.689-1.971 12.503l10.391 59.349h-22.424c-6.777-.001-12.291 5.513-12.291 12.29v58.792c0 6.793 5.514 12.319 12.291 12.319h18.692v13.931c0 15.952 12.978 28.931 28.93 28.931h392.146c15.952 0 28.93-12.979 28.93-28.931v-13.931h18.692c6.792 0 12.319-5.526 12.319-12.319v-58.792c0-6.777-5.526-12.291-12.319-12.291zm-52.629-44.59c-6.033-13.112-7.238-25.405-3.395-34.615 2.353-5.637 6.526-9.682 12.067-11.696 5.963-2.165 9.989-2.772 12.492-2.772 1.903 0 2.926.352 3.249.635.257.227.998 2.053-.079 6.856v-.001c-3.354 14.955-1.976 26.855-.87 36.418.817 7.06 1.522 13.156.183 18.793-4.256 17.897-14.623 26.52-39.062 29.598.064-.055.129-.11.193-.166 20.744-17.907 19.725-33.3 15.222-43.05zm-71.413 5.596c-.547-5.101.122-10.709 1.926-16.194 4.674-14.046 17.689-29.104 36.228-31.082 5.419-.579 10.839-.106 16.007 1.326-5.46 13.119-4.174 29.674 3.629 46.633 7.341 15.895-20.598 32.802-29.459 37.67-15.663-5.942-26.416-20.371-28.331-38.353zm-86.022 15.669v23.325h-65.278c-5.924-.565-10.573-5.566-10.573-11.635 0-6.446 5.244-11.69 11.69-11.69zm-31.181-67.588c-9.193 2.472-17.623 5.877-24.945 10.156-.144.084-.277.161-.402.232-.835-.986-1.916-2.373-2.915-3.653-1.22-1.564-2.738-3.512-4.561-5.747-3.887-4.736-9.447-10.428-15.183-15.647l41.309-16.666c2.156-.872 4.405-1.838 6.696-2.904v34.229zm-65.136-23.921c-2.286.915-4.808.876-7.102-.105-2.292-.982-4.058-2.782-4.978-5.088-.92-2.286-.887-4.809.093-7.102.983-2.3 2.79-4.072 5.086-4.989.067-.026.133-.055.2-.083l37.889-16.417 8.908 17.608zm24.786-239.077c18.661.347 38.567 13.09 42.201 40.142-16.386-3.124-49.812-9.815-53.698-10.822-.002-.001-.003-.001-.005-.002-2.177-.562-4.189-.807-6.06-.807-7.092 0-12.138 3.51-16.366 6.451-2.594 1.805-5.106 3.552-8.253 4.83 3.761-26.811 23.589-39.446 42.181-39.792zm-42.815 64.587v-8.939c8.035-1.837 13.349-5.518 17.453-8.373 4.92-3.422 6.5-4.368 10.105-3.435v-.001c2.692.696 41.589 8.654 58.043 11.682v9.066c0 12.891-12.305 31.783-29.263 39.855-.237.094-.469.198-.693.314-.93.423-1.869.822-2.824 1.177-3.898 1.428-6.984 2.064-10.006 2.064-3 0-6.189-.656-9.999-2.052-.912-.339-1.818-.724-2.719-1.135-.24-.129-.49-.243-.744-.346-15.757-7.563-29.353-25.655-29.353-39.877zm60.119 54.586v2.25c0 10.917-7.762 19.799-17.303 19.799-9.557 0-17.332-8.882-17.332-19.799v-2.253c.709.298 1.421.581 2.138.848 5.55 2.033 10.378 2.98 15.194 2.98 4.796 0 9.616-.947 15.199-2.992.704-.262 1.406-.541 2.104-.833zm-80.964 13.443c5.998-9.73 12.304-13.699 21.764-13.699h9.564v2.507c0 19.188 14.504 34.799 32.332 34.799 17.812 0 32.303-15.61 32.303-34.799v-2.507h9.564c13.542 0 24.56 11.019 24.56 24.562v18.207c-.124 2.386-.215 4.544-.298 6.516-.5 11.916-.651 15.512-5.984 24.767-6.067 10.52-15.358 17.828-30.883 24.285l-9.142-18.072c3.492-1.827 5.978-3.758 9.488-7.44.373-.39.701-.819.981-1.28l9.042-14.883c2.151-3.54 1.025-8.153-2.515-10.304-3.539-2.153-8.153-1.025-10.304 2.515l-8.611 14.173c-2.862 2.937-4.166 3.66-8.484 5.546l-47.077 20.399c-4.22 1.708-7.779 4.526-10.413 8.123-6.697-3.691-13.919-6.397-21.374-8.418l15.271-24.827c2.17-3.528 1.069-8.147-2.459-10.318-3.528-2.169-8.147-1.068-10.317 2.459l-18.079 29.391c-7.246-1.162-14.518-1.898-21.566-2.459zm-49.239 109.746c-6.738-.886-14.368-1.211-22.656-.447-1.369.125-4.511.461-4.932.504-.154-.804-10.596-60.364-10.596-60.364 5.925 2.52 14.85 14.187 19.748 24.469 2.785 5.894 5.744 8.391 9.707 9.338 4.668.601 8.067.501 9.606.607 1.984.142 3.998.299 6.022.467zm52.959 42.599c11.768 11.27 16.841 21.752 17.476 25.7-2.264 1.157-8.124 1.926-17.476 2.302zm-62.925 43.272h47.237c29.113 0 39.133-1.719 44.67-7.661 1.804-1.937 3.879-5.323 3.518-10.441-.947-13.842-20.043-42.506-58.025-60.072-2.636-1.218-6.991-3.016-12.717-4.651l7.281-26.837c13.738 1.92 27.323 5.274 38.367 12.043.02 3.001.597 5.997 1.747 8.852 2.4 6.011 7.014 10.731 12.992 13.293 3.087 1.323 6.339 1.986 9.592 1.986 1.521 0 3.043-.146 4.547-.436 7.017 5.779 14.865 13.437 19.575 19.177 1.705 2.09 3.105 3.886 4.341 5.471 1.635 2.098 3.21 4.11 4.884 5.781v30.949c-13.678 1.136-24.463 12.624-24.463 26.59 0 4.169.962 8.116 2.674 11.635h-106.22zm-36.869-11.487c5.052 10.652 13.783 11.425 21.869 11.481v25.684h-30.278l-10.5-60.008c5.968 2.342 14.364 13.215 18.909 22.843zm438.648 105.568h-223.099c-4.142 0-7.5 3.357-7.5 7.5s3.358 7.5 7.5 7.5h192.088v13.931c0 7.682-6.249 13.931-13.93 13.931h-392.146c-7.681 0-13.93-6.249-13.93-13.931v-13.931h194.922c4.142 0 7.5-3.357 7.5-7.5s-3.358-7.5-7.5-7.5h-225.905v-53.402h28.611c.007 0 .015.001.022.001.005 0 228.379 0 360.953-.001.008 0 .016.002.024.002.007 0 92.39-.002 92.39-.002z"/></g></svg>